<svg width="64" height="65" viewBox="0 0 64 65" fill="none" xmlns="http://www.w3.org/2000/svg">
<rect x="2" y="2" width="60" height="60" rx="30" fill="url(#paint0_linear_3_282)"/>
<g filter="url(#filter0_f_3_282)">
<rect x="2.7793" y="2.77917" width="58.4416" height="58.4416" rx="29.2208" fill="url(#paint1_linear_3_282)"/>
<rect x="3.0293" y="3.02917" width="57.9416" height="57.9416" rx="28.9708" stroke="url(#paint2_linear_3_282)" stroke-width="0.5"/>
</g>
<g filter="url(#filter1_f_3_282)">
<path d="M35.5427 27.7954V23.0407C35.5427 20.8942 36.0671 19.8084 39.7513 19.8084H44.3739V11.8214H36.6604C27.2083 11.8214 24.0898 15.74 24.0898 22.4666V27.7954H17.8804V35.7824H24.0898V59.7435H35.5427V35.7824H43.3252L44.3739 27.7954H35.5427Z" fill="#13488C" fill-opacity="0.5"/>
</g>
<mask id="path-5-inside-1_3_282" fill="white">
<path fill-rule="evenodd" clip-rule="evenodd" d="M37.6207 22.8088V27.7955H45.9324L44.9454 36.1721H37.6207V61.302H37.6147V61.475C34.7729 62.2342 29.127 62.0666 26.8396 61.5581V60.4519H26.8415V36.1721H20.9973V27.7955H26.8415V22.2067C26.8415 15.152 29.7765 11.0422 38.6726 11.0422H45.9324V19.4189H41.5817C38.1142 19.4189 37.6207 20.5576 37.6207 22.8088Z"/>
</mask>
<path fill-rule="evenodd" clip-rule="evenodd" d="M37.6207 22.8088V27.7955H45.9324L44.9454 36.1721H37.6207V61.302H37.6147V61.475C34.7729 62.2342 29.127 62.0666 26.8396 61.5581V60.4519H26.8415V36.1721H20.9973V27.7955H26.8415V22.2067C26.8415 15.152 29.7765 11.0422 38.6726 11.0422H45.9324V19.4189H41.5817C38.1142 19.4189 37.6207 20.5576 37.6207 22.8088Z" fill="white" fill-opacity="0.9"/>
<path d="M37.6207 27.7955H37.1207V28.2955H37.6207V27.7955ZM45.9324 27.7955L46.4289 27.854L46.4948 27.2955H45.9324V27.7955ZM44.9454 36.1721V36.6721H45.3899L45.4419 36.2306L44.9454 36.1721ZM37.6207 36.1721V35.6721H37.1207V36.1721H37.6207ZM37.6207 61.302V61.802H38.1207V61.302H37.6207ZM37.6147 61.302V60.802H37.1147V61.302H37.6147ZM37.6147 61.475L37.7438 61.958L38.1147 61.8589V61.475H37.6147ZM26.8396 61.5581H26.3396V61.9592L26.7311 62.0462L26.8396 61.5581ZM26.8396 60.4519V59.9519H26.3396V60.4519H26.8396ZM26.8415 60.4519V60.9519H27.3415V60.4519H26.8415ZM26.8415 36.1721H27.3415V35.6721H26.8415V36.1721ZM20.9973 36.1721H20.4973V36.6721H20.9973V36.1721ZM20.9973 27.7955V27.2955H20.4973V27.7955H20.9973ZM26.8415 27.7955V28.2955H27.3415V27.7955H26.8415ZM45.9324 11.0422H46.4324V10.5422H45.9324V11.0422ZM45.9324 19.4189V19.9189H46.4324V19.4189H45.9324ZM38.1207 27.7955V22.8088H37.1207V27.7955H38.1207ZM45.9324 27.2955H37.6207V28.2955H45.9324V27.2955ZM45.4419 36.2306L46.4289 27.854L45.4358 27.737L44.4488 36.1136L45.4419 36.2306ZM37.6207 36.6721H44.9454V35.6721H37.6207V36.6721ZM38.1207 61.302V36.1721H37.1207V61.302H38.1207ZM37.6147 61.802H37.6207V60.802H37.6147V61.802ZM37.1147 61.302V61.475H38.1147V61.302H37.1147ZM37.4857 60.9919C36.1307 61.3539 34.0627 61.5024 32.0218 61.4919C29.9836 61.4814 28.0411 61.313 26.9482 61.07L26.7311 62.0462C27.9256 62.3117 29.9497 62.4813 32.0167 62.4919C34.081 62.5025 36.2569 62.3552 37.7438 61.958L37.4857 60.9919ZM27.3396 61.5581V60.4519H26.3396V61.5581H27.3396ZM26.8396 60.9519H26.8415V59.9519H26.8396V60.9519ZM26.3415 36.1721V60.4519H27.3415V36.1721H26.3415ZM20.9973 36.6721H26.8415V35.6721H20.9973V36.6721ZM20.4973 27.7955V36.1721H21.4973V27.7955H20.4973ZM26.8415 27.2955H20.9973V28.2955H26.8415V27.2955ZM26.3415 22.2067V27.7955H27.3415V22.2067H26.3415ZM38.6726 10.5422C34.1586 10.5422 31.0409 11.584 29.0615 13.6314C27.0849 15.6761 26.3415 18.6234 26.3415 22.2067H27.3415C27.3415 18.7353 28.0656 16.1004 29.7805 14.3265C31.4927 12.5553 34.2906 11.5422 38.6726 11.5422V10.5422ZM45.9324 10.5422H38.6726V11.5422H45.9324V10.5422ZM46.4324 19.4189V11.0422H45.4324V19.4189H46.4324ZM41.5817 19.9189H45.9324V18.9189H41.5817V19.9189ZM38.1207 22.8088C38.1207 21.6814 38.2559 21.0284 38.6573 20.6202C39.0623 20.2086 39.8671 19.9189 41.5817 19.9189V18.9189C39.8288 18.9189 38.6531 19.1985 37.9444 19.919C37.2322 20.643 37.1207 21.6849 37.1207 22.8088H38.1207Z" fill="url(#paint3_linear_3_282)" mask="url(#path-5-inside-1_3_282)"/>
<defs>
<filter id="filter0_f_3_282" x="0.779297" y="0.779175" width="62.4417" height="62.4415" filterUnits="userSpaceOnUse" color-interpolation-filters="sRGB">
<feFlood flood-opacity="0" result="BackgroundImageFix"/>
<feBlend mode="normal" in="SourceGraphic" in2="BackgroundImageFix" result="shape"/>
<feGaussianBlur stdDeviation="1" result="effect1_foregroundBlur_3_282"/>
</filter>
<filter id="filter1_f_3_282" x="12.8804" y="6.82141" width="36.4934" height="57.9221" filterUnits="userSpaceOnUse" color-interpolation-filters="sRGB">
<feFlood flood-opacity="0" result="BackgroundImageFix"/>
<feBlend mode="normal" in="SourceGraphic" in2="BackgroundImageFix" result="shape"/>
<feGaussianBlur stdDeviation="2.5" result="effect1_foregroundBlur_3_282"/>
</filter>
<linearGradient id="paint0_linear_3_282" x1="30.8312" y1="60.4416" x2="32" y2="5.31169" gradientUnits="userSpaceOnUse">
<stop stop-color="#004DAE"/>
<stop offset="0.869762" stop-color="#4497FF"/>
</linearGradient>
<linearGradient id="paint1_linear_3_282" x1="32.0001" y1="9.20774" x2="32.0001" y2="54.7922" gradientUnits="userSpaceOnUse">
<stop stop-color="#1778F2"/>
<stop offset="1" stop-color="#1778F2" stop-opacity="0.62"/>
</linearGradient>
<linearGradient id="paint2_linear_3_282" x1="32.0001" y1="2.77917" x2="32.0001" y2="61.2207" gradientUnits="userSpaceOnUse">
<stop stop-color="#7CB4FB"/>
<stop offset="1" stop-color="#0B6280"/>
</linearGradient>
<linearGradient id="paint3_linear_3_282" x1="33.4648" y1="11.0422" x2="33.4648" y2="61.9924" gradientUnits="userSpaceOnUse">
<stop stop-color="white"/>
<stop offset="1" stop-color="white" stop-opacity="0"/>
</linearGradient>
</defs>
</svg>
