<svg width="70" height="70" viewBox="0 0 70 70" fill="none" xmlns="http://www.w3.org/2000/svg">
<rect x="5" y="5" width="60" height="60" rx="30" fill="url(#paint0_linear_3_290)"/>
<g filter="url(#filter0_f_3_290)">
<rect x="5.7793" y="5.77917" width="58.4416" height="58.4416" rx="29.2208" fill="url(#paint1_linear_3_290)"/>
<rect x="6.0293" y="6.02917" width="57.9416" height="57.9416" rx="28.9708" stroke="url(#paint2_linear_3_290)" stroke-width="0.5"/>
</g>
<g filter="url(#filter1_f_3_290)">
<path fill-rule="evenodd" clip-rule="evenodd" d="M24.4804 23.1168C24.4804 25.161 22.7361 26.8181 20.5843 26.8181C18.4326 26.8181 16.6882 25.161 16.6882 23.1168C16.6882 21.0727 18.4326 19.4155 20.5843 19.4155C22.7361 19.4155 24.4804 21.0727 24.4804 23.1168ZM16.6882 52.922H23.8682V28.7662H16.6882V52.922ZM43.0148 52.922H50.1947V39.2812C50.1947 36.0178 49.436 33.694 47.9115 31.962C46.3965 30.2324 44.4125 29.544 41.9593 29.544C38.7331 29.544 36.3805 31.1818 34.9086 33.5973H34.7602L34.3222 28.7662H28.6548C28.7506 31.1818 28.6548 52.922 28.6548 52.922H35.8348V37.7956C36.4283 35.9187 37.6106 34.9815 39.475 34.9815C41.8277 34.9815 43.0148 36.6555 43.0148 40.018V52.922Z" fill="#0B4C8C"/>
</g>
<mask id="path-5-inside-1_3_290" fill="white">
<path fill-rule="evenodd" clip-rule="evenodd" d="M27.5974 21.1688C27.5974 23.213 25.853 24.8701 23.7013 24.8701C21.5495 24.8701 19.8052 23.213 19.8052 21.1688C19.8052 19.1247 21.5495 17.4675 23.7013 17.4675C25.853 17.4675 27.5974 19.1247 27.5974 21.1688ZM19.8052 50.974H26.9851V26.8182H19.8052V50.974ZM46.1317 50.974H53.3117V37.3332C53.3117 34.0698 52.553 31.746 51.0284 30.014C49.5135 28.2844 47.5294 27.596 45.0763 27.596C41.8501 27.596 39.4974 29.2338 38.0255 31.6493H37.8771L37.4392 26.8182H31.7718C31.8675 29.2338 31.7718 50.974 31.7718 50.974H38.9517V35.8476C39.5453 33.9707 40.7276 33.0335 42.592 33.0335C44.9446 33.0335 46.1317 34.7075 46.1317 38.07V50.974Z"/>
</mask>
<path fill-rule="evenodd" clip-rule="evenodd" d="M27.5974 21.1688C27.5974 23.213 25.853 24.8701 23.7013 24.8701C21.5495 24.8701 19.8052 23.213 19.8052 21.1688C19.8052 19.1247 21.5495 17.4675 23.7013 17.4675C25.853 17.4675 27.5974 19.1247 27.5974 21.1688ZM19.8052 50.974H26.9851V26.8182H19.8052V50.974ZM46.1317 50.974H53.3117V37.3332C53.3117 34.0698 52.553 31.746 51.0284 30.014C49.5135 28.2844 47.5294 27.596 45.0763 27.596C41.8501 27.596 39.4974 29.2338 38.0255 31.6493H37.8771L37.4392 26.8182H31.7718C31.8675 29.2338 31.7718 50.974 31.7718 50.974H38.9517V35.8476C39.5453 33.9707 40.7276 33.0335 42.592 33.0335C44.9446 33.0335 46.1317 34.7075 46.1317 38.07V50.974Z" fill="white" fill-opacity="0.9"/>
<path d="M26.9851 50.974V51.474H27.4851V50.974H26.9851ZM19.8052 50.974H19.3052V51.474H19.8052V50.974ZM26.9851 26.8182H27.4851V26.3182H26.9851V26.8182ZM19.8052 26.8182V26.3182H19.3052V26.8182H19.8052ZM53.3117 50.974V51.474H53.8117V50.974H53.3117ZM46.1317 50.974H45.6317V51.474H46.1317V50.974ZM51.0284 30.014L50.6523 30.3434L50.6531 30.3444L51.0284 30.014ZM38.0255 31.6493V32.1493H38.3064L38.4525 31.9095L38.0255 31.6493ZM37.8771 31.6493L37.3792 31.6945L37.4204 32.1493H37.8771V31.6493ZM37.4392 26.8182L37.9371 26.773L37.8959 26.3182H37.4392V26.8182ZM31.7718 26.8182V26.3182H31.2516L31.2722 26.838L31.7718 26.8182ZM31.7718 50.974L31.2718 50.9718L31.2696 51.474H31.7718V50.974ZM38.9517 50.974V51.474H39.4517V50.974H38.9517ZM38.9517 35.8476L38.475 35.6969L38.4517 35.7705V35.8476H38.9517ZM23.7013 25.3701C26.1047 25.3701 28.0974 23.513 28.0974 21.1688H27.0974C27.0974 22.913 25.6014 24.3701 23.7013 24.3701V25.3701ZM19.3052 21.1688C19.3052 23.513 21.2979 25.3701 23.7013 25.3701V24.3701C21.8012 24.3701 20.3052 22.913 20.3052 21.1688H19.3052ZM23.7013 16.9675C21.2979 16.9675 19.3052 18.8247 19.3052 21.1688H20.3052C20.3052 19.4247 21.8012 17.9675 23.7013 17.9675V16.9675ZM28.0974 21.1688C28.0974 18.8247 26.1047 16.9675 23.7013 16.9675V17.9675C25.6014 17.9675 27.0974 19.4247 27.0974 21.1688H28.0974ZM26.9851 50.474H19.8052V51.474H26.9851V50.474ZM26.4851 26.8182V50.974H27.4851V26.8182H26.4851ZM19.8052 27.3182H26.9851V26.3182H19.8052V27.3182ZM20.3052 50.974V26.8182H19.3052V50.974H20.3052ZM53.3117 50.474H46.1317V51.474H53.3117V50.474ZM52.8117 37.3332V50.974H53.8117V37.3332H52.8117ZM50.6531 30.3444C52.0732 31.9576 52.8117 34.1491 52.8117 37.3332H53.8117C53.8117 33.9904 53.0328 31.5343 51.4038 29.6836L50.6531 30.3444ZM45.0763 28.096C47.4261 28.096 49.2562 28.7496 50.6523 30.3434L51.4046 29.6845C49.7707 27.8193 47.6328 27.096 45.0763 27.096V28.096ZM38.4525 31.9095C39.8469 29.6211 42.0486 28.096 45.0763 28.096V27.096C41.6515 27.096 39.1479 28.8465 37.5985 31.3892L38.4525 31.9095ZM37.8771 32.1493H38.0255V31.1493H37.8771V32.1493ZM36.9412 26.8633L37.3792 31.6945L38.3751 31.6042L37.9371 26.773L36.9412 26.8633ZM31.7718 27.3182H37.4392V26.3182H31.7718V27.3182ZM31.7718 50.974C32.2718 50.9762 32.2718 50.9761 32.2718 50.976C32.2718 50.9758 32.2718 50.9756 32.2718 50.9752C32.2718 50.9746 32.2718 50.9736 32.2718 50.9722C32.2718 50.9696 32.2718 50.9657 32.2718 50.9604C32.2719 50.95 32.272 50.9344 32.272 50.9137C32.2722 50.8725 32.2725 50.8113 32.2728 50.7314C32.2735 50.5715 32.2745 50.3368 32.2757 50.0372C32.2781 49.4379 32.2815 48.5792 32.2852 47.5412C32.2927 45.4651 32.3017 42.6718 32.3077 39.803C32.3196 34.0748 32.3198 28.0198 32.2714 26.7984L31.2722 26.838C31.3195 28.0321 31.3197 34.055 31.3077 39.8009C31.3017 42.6691 31.2927 45.4618 31.2852 47.5376C31.2815 48.5754 31.2781 49.434 31.2757 50.0331C31.2745 50.3327 31.2735 50.5674 31.2728 50.7272C31.2725 50.807 31.2722 50.8682 31.2721 50.9094C31.272 50.93 31.2719 50.9456 31.2719 50.9561C31.2718 50.9613 31.2718 50.9652 31.2718 50.9679C31.2718 50.9692 31.2718 50.9702 31.2718 50.9708C31.2718 50.9712 31.2718 50.9714 31.2718 50.9716C31.2718 50.9717 31.2718 50.9718 31.7718 50.974ZM38.9517 50.474H31.7718V51.474H38.9517V50.474ZM38.4517 35.8476V50.974H39.4517V35.8476H38.4517ZM42.592 32.5335C41.573 32.5335 40.6964 32.7912 39.9883 33.3421C39.2838 33.89 38.7929 34.6917 38.475 35.6969L39.4285 35.9984C39.7042 35.1266 40.1011 34.5212 40.6023 34.1314C41.0998 33.7444 41.7465 33.5335 42.592 33.5335V32.5335ZM46.6317 38.07C46.6317 36.3451 46.33 34.9641 45.6529 34.0029C44.9533 33.0097 43.9029 32.5335 42.592 32.5335V33.5335C43.6337 33.5335 44.3532 33.8943 44.8353 34.5787C45.3399 35.2951 45.6317 36.4324 45.6317 38.07H46.6317ZM46.6317 50.974V38.07H45.6317V50.974H46.6317Z" fill="url(#paint3_linear_3_290)" mask="url(#path-5-inside-1_3_290)"/>
<defs>
<filter id="filter0_f_3_290" x="0.779297" y="0.779175" width="68.4417" height="68.4415" filterUnits="userSpaceOnUse" color-interpolation-filters="sRGB">
<feFlood flood-opacity="0" result="BackgroundImageFix"/>
<feBlend mode="normal" in="SourceGraphic" in2="BackgroundImageFix" result="shape"/>
<feGaussianBlur stdDeviation="2.5" result="effect1_foregroundBlur_3_290"/>
</filter>
<filter id="filter1_f_3_290" x="6.68823" y="9.41553" width="53.5066" height="53.5065" filterUnits="userSpaceOnUse" color-interpolation-filters="sRGB">
<feFlood flood-opacity="0" result="BackgroundImageFix"/>
<feBlend mode="normal" in="SourceGraphic" in2="BackgroundImageFix" result="shape"/>
<feGaussianBlur stdDeviation="5" result="effect1_foregroundBlur_3_290"/>
</filter>
<linearGradient id="paint0_linear_3_290" x1="33.8312" y1="63.4416" x2="35" y2="8.31169" gradientUnits="userSpaceOnUse">
<stop stop-color="#004081"/>
<stop offset="1" stop-color="#5BA9F8"/>
</linearGradient>
<linearGradient id="paint1_linear_3_290" x1="35.0001" y1="12.2077" x2="35.0001" y2="57.7922" gradientUnits="userSpaceOnUse">
<stop stop-color="#0A66C2" stop-opacity="0.56"/>
<stop offset="1" stop-color="#0A66C2"/>
</linearGradient>
<linearGradient id="paint2_linear_3_290" x1="35.0001" y1="5.77917" x2="35.0001" y2="64.2207" gradientUnits="userSpaceOnUse">
<stop stop-color="#59ACFF"/>
<stop offset="1" stop-color="#013162"/>
</linearGradient>
<linearGradient id="paint3_linear_3_290" x1="36.5584" y1="17.4675" x2="36.5584" y2="50.974" gradientUnits="userSpaceOnUse">
<stop stop-color="white"/>
<stop offset="1" stop-color="white" stop-opacity="0"/>
</linearGradient>
</defs>
</svg>
