<svg width="70" height="70" viewBox="0 0 70 70" fill="none" xmlns="http://www.w3.org/2000/svg">
<rect x="5" y="5" width="60" height="60" rx="30" fill="url(#paint0_linear_3_300)"/>
<g filter="url(#filter0_f_3_300)">
<rect x="5.7793" y="5.77917" width="58.4416" height="58.4416" rx="29.2208" fill="url(#paint1_linear_3_300)"/>
<rect x="6.0293" y="6.02917" width="57.9416" height="57.9416" rx="28.9708" stroke="url(#paint2_linear_3_300)" stroke-width="0.5"/>
</g>
<g filter="url(#filter1_f_3_300)">
<path d="M49.8438 27.9846C49.4361 26.4519 48.2348 25.245 46.7093 24.8354C43.9441 24.0909 32.8572 24.0909 32.8572 24.0909C32.8572 24.0909 21.7702 24.0909 19.005 24.8354C17.4798 25.245 16.2783 26.4519 15.8706 27.9846C15.1299 30.7625 15.1299 36.5587 15.1299 36.5587C15.1299 36.5587 15.1299 42.3547 15.8706 45.1323C16.2783 46.665 17.4798 47.8723 19.005 48.2818C21.7702 49.026 32.8572 49.026 32.8572 49.026C32.8572 49.026 43.9441 49.026 46.7093 48.2818C48.2348 47.8723 49.4361 46.665 49.8438 45.1323C50.5844 42.3547 50.5844 36.5587 50.5844 36.5587C50.5844 36.5587 50.5844 30.7625 49.8438 27.9846ZM29.3115 41.902V31.2153L38.5227 36.5587L29.3115 41.902Z" fill="#9B0000"/>
</g>
<path d="M51.5502 26.4904L51.5502 26.4905C51.913 27.8512 52.0975 29.9706 52.1902 31.7678C52.2363 32.6626 52.2594 33.4712 52.2709 34.0561C52.2767 34.3485 52.2795 34.5848 52.281 34.7479C52.2817 34.8295 52.2821 34.8927 52.2822 34.9355L52.2824 34.984L52.2824 34.9963L52.2824 34.9993V35V35.0002L52.5324 35.0002L52.2824 35.0002V35.0004V35.0011L52.2824 35.0042L52.2824 35.0164L52.2822 35.0649C52.2821 35.1077 52.2817 35.1709 52.281 35.2525C52.2795 35.4156 52.2767 35.6519 52.2709 35.9443C52.2594 36.5292 52.2363 37.3377 52.1902 38.2326C52.0975 40.0296 51.913 42.1489 51.5502 43.5095L51.5502 43.5096C51.1654 44.9563 50.0311 46.0957 48.5925 46.4819L48.5923 46.482C47.9271 46.661 46.7382 46.7995 45.3081 46.9043C43.8849 47.0085 42.2439 47.0782 40.6868 47.1246C39.1302 47.1711 37.6596 47.1943 36.578 47.2059C36.0373 47.2117 35.5939 47.2146 35.2858 47.2161C35.1317 47.2168 35.0115 47.2172 34.9298 47.2174L34.8368 47.2175L34.8131 47.2175L34.8071 47.2175H34.8057H34.8053C34.8052 47.2175 34.8052 47.2175 34.8052 47.4675C34.8052 47.2175 34.8052 47.2175 34.8051 47.2175H34.8047H34.8032L34.7973 47.2175L34.7736 47.2175L34.6806 47.2174C34.5989 47.2172 34.4786 47.2168 34.3246 47.2161C34.0164 47.2146 33.5731 47.2117 33.0323 47.2059C31.9507 47.1943 30.4801 47.1711 28.9235 47.1246C27.3665 47.0782 25.7254 47.0085 24.3023 46.9043C22.8721 46.7995 21.6832 46.661 21.018 46.482L21.0179 46.4819C19.5794 46.0957 18.445 44.9563 18.0602 43.5096L18.0602 43.5094C17.6974 42.1489 17.5128 40.0296 17.4201 38.2326C17.374 37.3377 17.3509 36.5292 17.3394 35.9443C17.3336 35.6519 17.3308 35.4156 17.3293 35.2525C17.3286 35.1709 17.3282 35.1077 17.3281 35.0649L17.3279 35.0164L17.3279 35.0042L17.3279 35.0011L17.3279 35.0004L17.3279 35.0002L17.0779 35.0002L17.3279 35.0002L17.3279 35L17.3279 34.9993L17.3279 34.9963L17.3279 34.984L17.3281 34.9355C17.3282 34.8927 17.3286 34.8295 17.3293 34.7479C17.3308 34.5848 17.3336 34.3485 17.3394 34.0561C17.3509 33.4712 17.374 32.6626 17.4201 31.7678C17.5128 29.9706 17.6974 27.8512 18.0602 26.4906L18.0602 26.4904C18.445 25.0437 19.5794 23.9047 21.0179 23.5183L21.018 23.5183C21.6832 23.3392 22.8721 23.2007 24.3023 23.0959C25.7254 22.9915 27.3665 22.9219 28.9235 22.8754C30.4801 22.8289 31.9507 22.8057 33.0323 22.7941C33.5731 22.7883 34.0164 22.7854 34.3246 22.7839C34.4786 22.7832 34.5989 22.7828 34.6806 22.7827L34.7736 22.7825L34.7973 22.7825L34.8032 22.7825L34.8047 22.7825L34.8051 22.7825C34.8052 22.7825 34.8052 22.7825 34.8052 22.5325C34.8052 22.7825 34.8052 22.7825 34.8053 22.7825L34.8057 22.7825L34.8071 22.7825L34.8131 22.7825L34.8368 22.7825L34.9298 22.7827C35.0115 22.7828 35.1317 22.7832 35.2858 22.7839C35.5939 22.7854 36.0373 22.7883 36.578 22.7941C37.6596 22.8057 39.1302 22.8289 40.6868 22.8754C42.2439 22.9219 43.8849 22.9915 45.3081 23.0959C46.7382 23.2007 47.9271 23.3392 48.5923 23.5183L48.5924 23.5184C50.0312 23.9047 51.1654 25.0437 51.5502 26.4904ZM31.0095 40.3435V40.7775L31.385 40.5598L40.5962 35.2165L40.969 35.0002L40.5962 34.784L31.385 29.4406L31.0095 29.2228V29.6568V40.3435Z" fill="white" fill-opacity="0.9" stroke="url(#paint3_linear_3_300)" stroke-width="0.5"/>
<defs>
<filter id="filter0_f_3_300" x="0.779297" y="0.779175" width="68.4417" height="68.4415" filterUnits="userSpaceOnUse" color-interpolation-filters="sRGB">
<feFlood flood-opacity="0" result="BackgroundImageFix"/>
<feBlend mode="normal" in="SourceGraphic" in2="BackgroundImageFix" result="shape"/>
<feGaussianBlur stdDeviation="2.5" result="effect1_foregroundBlur_3_300"/>
</filter>
<filter id="filter1_f_3_300" x="5.12988" y="14.0909" width="55.4546" height="44.9351" filterUnits="userSpaceOnUse" color-interpolation-filters="sRGB">
<feFlood flood-opacity="0" result="BackgroundImageFix"/>
<feBlend mode="normal" in="SourceGraphic" in2="BackgroundImageFix" result="shape"/>
<feGaussianBlur stdDeviation="5" result="effect1_foregroundBlur_3_300"/>
</filter>
<linearGradient id="paint0_linear_3_300" x1="33.8312" y1="63.4416" x2="35" y2="8.31169" gradientUnits="userSpaceOnUse">
<stop stop-color="#A70000"/>
<stop offset="1" stop-color="#FF9191"/>
</linearGradient>
<linearGradient id="paint1_linear_3_300" x1="35.0001" y1="12.2077" x2="35.0001" y2="57.7922" gradientUnits="userSpaceOnUse">
<stop stop-color="#FF0000" stop-opacity="0.67"/>
<stop offset="1" stop-color="#FF0000"/>
</linearGradient>
<linearGradient id="paint2_linear_3_300" x1="35.0001" y1="5.77917" x2="35.0001" y2="64.2207" gradientUnits="userSpaceOnUse">
<stop stop-color="#FF8888"/>
<stop offset="1" stop-color="#D60000"/>
</linearGradient>
<linearGradient id="paint3_linear_3_300" x1="34.8052" y1="22.5325" x2="34.8052" y2="47.4675" gradientUnits="userSpaceOnUse">
<stop stop-color="white"/>
<stop offset="1" stop-color="white" stop-opacity="0"/>
</linearGradient>
</defs>
</svg>
